
      <svg data-logo="logo" xmlns="http://www.w3.org/2000/svg" viewBox="0 0 41 41">
        <g id="logogram" transform="
    translate(0, 0)
    rotate(0 20 20.5)
    
  "><path d="M28.4698 18.8704C29.9143 17.6608 30.8329 15.8439 30.8329 13.8124C30.8329 11.7811 29.9143 9.96418 28.4698 8.75454C28.6354 8.67437 28.7947 8.58737 28.9465 8.49309C29.9046 7.89734 31.0355 7.55328 32.2467 7.55328C35.7036 7.55328 38.5059 10.3557 38.5059 13.8124C38.5059 17.2693 35.7036 20.0716 32.2467 20.0716C31.0355 20.0716 29.9046 19.7276 28.9465 19.1319C28.7947 19.0376 28.6354 18.9506 28.4698 18.8704Z" fill="url(#paint0_linear_5557_2016)"/><path d="M26.7314 14.7978C27.3775 13.028 27.2646 10.9953 26.2489 9.23602C25.2332 7.47675 23.5292 6.36257 21.6734 6.03724C21.7767 5.88508 21.8711 5.73007 21.9554 5.57252C22.4873 4.57755 23.2947 3.71413 24.3436 3.10851C27.3374 1.38008 31.1655 2.40581 32.8939 5.39952C34.6223 8.39325 33.5966 12.2213 30.6028 13.9497C29.5539 14.5554 28.4024 14.8228 27.2748 14.786C27.0963 14.7801 26.9148 14.7845 26.7314 14.7978Z" fill="url(#paint1_linear_5557_2016)"/><path d="M23.1894 12.14C22.8641 10.2843 21.7499 8.58029 19.9906 7.56457C18.2314 6.54885 16.1986 6.43594 14.4288 7.08207C14.4422 6.89866 14.4465 6.71718 14.4406 6.53865C14.4038 5.411 14.6713 4.25958 15.2769 3.21059C17.0054 0.216872 20.8334 -0.808853 23.8272 0.919573C26.8208 2.648 27.8467 6.47606 26.1182 9.46981C25.5125 10.5188 24.6491 11.3261 23.6541 11.8581C23.4967 11.9423 23.3416 12.0367 23.1894 12.14Z" fill="url(#paint2_linear_5557_2016)"/><path d="M18.7926 11.6094C17.5829 10.1649 15.766 9.24635 13.7346 9.24635C11.7031 9.24635 9.88624 10.1649 8.67662 11.6094C8.59649 11.4438 8.50947 11.2845 8.41515 11.1328C7.81943 10.1746 7.47537 9.04378 7.47537 7.8325C7.47537 4.37564 10.2777 1.5733 13.7346 1.5733C17.1914 1.5733 19.9937 4.37564 19.9937 7.8325C19.9937 9.04378 19.6497 10.1746 19.054 11.1328C18.9596 11.2845 18.8726 11.4438 18.7926 11.6094Z" fill="url(#paint3_linear_5557_2016)"/><path d="M14.7191 13.348C12.9493 12.7018 10.9165 12.8148 9.15721 13.8304C7.39793 14.8461 6.28375 16.5501 5.95844 18.4058C5.80627 18.3025 5.65125 18.2081 5.49371 18.1239C4.49873 17.592 3.63532 16.7846 3.02969 15.7356C1.30125 12.7419 2.32698 8.91387 5.32071 7.18542C8.31444 5.45698 12.1425 6.48271 13.871 9.47646C14.4766 10.5254 14.7441 11.6768 14.7072 12.8045C14.7014 12.983 14.7057 13.1645 14.7191 13.348Z" fill="url(#paint4_linear_5557_2016)"/><path d="M12.0601 16.8903C10.2043 17.2156 8.50038 18.3298 7.48466 20.0891C6.46894 21.8484 6.35603 23.8811 7.00217 25.6509C6.81874 25.6375 6.63723 25.6332 6.45868 25.639C5.33105 25.6759 4.17963 25.4084 3.13065 24.8028C0.136916 23.0743 -0.888811 19.2463 0.839618 16.2525C2.56804 13.2589 6.39611 12.2331 9.38984 13.9616C10.4388 14.5672 11.2462 15.4306 11.7781 16.4255C11.8623 16.5831 11.9568 16.7381 12.0601 16.8903Z" fill="url(#paint5_linear_5557_2016)"/><path d="M11.5285 21.2874C10.084 22.497 9.16542 24.3139 9.16542 26.3452C9.16542 28.3767 10.084 30.1936 11.5285 31.4032C11.363 31.4833 11.2036 31.5704 11.0519 31.6647C10.0938 32.2604 8.96289 32.6044 7.75162 32.6044C4.29477 32.6044 1.49243 29.8021 1.49243 26.3452C1.49243 22.8884 4.29477 20.0861 7.75162 20.0861C8.96289 20.0861 10.0938 20.4301 11.0519 21.0259C11.2036 21.1202 11.363 21.2072 11.5285 21.2874Z" fill="url(#paint6_linear_5557_2016)"/><path d="M13.2665 25.361C12.6202 27.1308 12.7331 29.1636 13.7489 30.9228C14.7646 32.6822 16.4686 33.7963 18.3244 34.1216C18.221 34.2739 18.1266 34.4289 18.0424 34.5865C17.5105 35.5814 16.7031 36.4448 15.6542 37.0504C12.6604 38.7789 8.83233 37.7531 7.1039 34.7594C5.37547 31.7656 6.4012 27.9376 9.39492 26.2091C10.4439 25.6035 11.5954 25.336 12.723 25.3729C12.9015 25.3787 13.083 25.3744 13.2665 25.361Z" fill="url(#paint7_linear_5557_2016)"/><path d="M16.8087 28.0199C17.134 29.8757 18.2482 31.5797 20.0074 32.5953C21.7667 33.611 23.7996 33.7239 25.5694 33.0778C25.556 33.2613 25.5517 33.4427 25.5575 33.6213C25.5944 34.7489 25.3269 35.9004 24.7213 36.9493C22.9928 39.9431 19.1648 40.9688 16.171 39.2403C13.1772 37.5119 12.1515 33.6839 13.88 30.6901C14.4856 29.6412 15.349 28.8338 16.3439 28.3019C16.5015 28.2176 16.6565 28.1231 16.8087 28.0199Z" fill="url(#paint8_linear_5557_2016)"/><path d="M21.2057 28.5517C22.4153 29.9962 24.2322 30.9147 26.2637 30.9147C28.2952 30.9147 30.112 29.9962 31.3217 28.5517C31.4017 28.7172 31.4887 28.8765 31.5831 29.0282C32.1788 29.9863 32.5229 31.1173 32.5229 32.3286C32.5229 35.7854 29.7206 38.5878 26.2637 38.5878C22.8068 38.5878 20.0045 35.7854 20.0045 32.3286C20.0045 31.1173 20.3485 29.9863 20.9442 29.0282C21.0386 28.8765 21.1256 28.7172 21.2057 28.5517Z" fill="url(#paint9_linear_5557_2016)"/><path d="M25.2794 26.8137C27.0492 27.4598 29.0819 27.3469 30.8412 26.3313C32.6004 25.3155 33.7146 23.6116 34.04 21.7558C34.1921 21.859 34.3471 21.9535 34.5047 22.0377C35.4997 22.5697 36.3631 23.3771 36.9687 24.426C38.6972 27.4198 37.6714 31.2478 34.6777 32.9763C31.684 34.7046 27.856 33.679 26.1275 30.6852C25.5218 29.6362 25.2544 28.4848 25.2912 27.3572C25.2971 27.1787 25.2928 26.9972 25.2794 26.8137Z" fill="url(#paint10_linear_5557_2016)"/><path d="M32.5176 20.0659C32.5163 20.0681 32.515 20.0703 32.5138 20.0725C31.4981 21.8318 29.7942 22.946 27.9384 23.2713C28.0416 23.4236 28.1361 23.5786 28.2203 23.736C28.7523 24.7311 29.5597 25.5944 30.6086 26.2001C33.6024 27.9286 37.4304 26.9028 39.1589 23.9091C40.6406 21.3424 40.0982 18.1626 38.0268 16.2184C37.1168 18.4022 35.0051 19.96 32.5176 20.0659Z" fill="url(#paint11_linear_5557_2016)"/></g>
        <g id="logotype" transform=""></g>
        <defs xmlns="http://www.w3.org/2000/svg">
<linearGradient id="paint0_linear_5557_2016" x1="29.2535" y1="7.55328" x2="29.2535" y2="20.0716" gradientUnits="userSpaceOnUse">
<stop stop-color="#25136D"/>
<stop offset="1" stop-color="#3D9BA2"/>
</linearGradient>
<linearGradient id="paint1_linear_5557_2016" x1="21.7515" y1="4.60508" x2="28.0107" y2="15.4464" gradientUnits="userSpaceOnUse">
<stop stop-color="#25136D"/>
<stop offset="1" stop-color="#3D9BA2"/>
</linearGradient>
<linearGradient id="paint2_linear_5557_2016" x1="13.7804" y1="5.80276" x2="24.6216" y2="12.0619" gradientUnits="userSpaceOnUse">
<stop stop-color="#25136D"/>
<stop offset="1" stop-color="#3D9BA2"/>
</linearGradient>
<linearGradient id="paint3_linear_5557_2016" x1="7.47537" y1="10.8256" x2="19.9937" y2="10.8256" gradientUnits="userSpaceOnUse">
<stop stop-color="#25136D"/>
<stop offset="1" stop-color="#3D9BA2"/>
</linearGradient>
<linearGradient id="paint4_linear_5557_2016" x1="4.52628" y1="18.3278" x2="15.3675" y2="12.0686" gradientUnits="userSpaceOnUse">
<stop stop-color="#25136D"/>
<stop offset="1" stop-color="#3D9BA2"/>
</linearGradient>
<linearGradient id="paint5_linear_5557_2016" x1="5.72282" y1="26.2994" x2="11.982" y2="15.4581" gradientUnits="userSpaceOnUse">
<stop stop-color="#25136D"/>
<stop offset="1" stop-color="#3D9BA2"/>
</linearGradient>
<linearGradient id="paint6_linear_5557_2016" x1="10.7448" y1="32.6044" x2="10.7448" y2="20.0861" gradientUnits="userSpaceOnUse">
<stop stop-color="#25136D"/>
<stop offset="1" stop-color="#3D9BA2"/>
</linearGradient>
<linearGradient id="paint7_linear_5557_2016" x1="18.2463" y1="35.5538" x2="11.9871" y2="24.7126" gradientUnits="userSpaceOnUse">
<stop stop-color="#25136D"/>
<stop offset="1" stop-color="#3D9BA2"/>
</linearGradient>
<linearGradient id="paint8_linear_5557_2016" x1="26.2178" y1="34.3572" x2="15.3766" y2="28.0979" gradientUnits="userSpaceOnUse">
<stop stop-color="#25136D"/>
<stop offset="1" stop-color="#3D9BA2"/>
</linearGradient>
<linearGradient id="paint9_linear_5557_2016" x1="32.5229" y1="29.3354" x2="20.0045" y2="29.3354" gradientUnits="userSpaceOnUse">
<stop stop-color="#25136D"/>
<stop offset="1" stop-color="#3D9BA2"/>
</linearGradient>
<linearGradient id="paint10_linear_5557_2016" x1="35.4722" y1="21.8339" x2="24.6309" y2="28.0931" gradientUnits="userSpaceOnUse">
<stop stop-color="#25136D"/>
<stop offset="1" stop-color="#3D9BA2"/>
</linearGradient>
<linearGradient id="paint11_linear_5557_2016" x1="34.2757" y1="13.8623" x2="28.0165" y2="24.7035" gradientUnits="userSpaceOnUse">
<stop stop-color="#25136D"/>
<stop offset="1" stop-color="#3D9BA2"/>
</linearGradient>
</defs>
      </svg>
    